<?xml version="1.0" encoding="utf-8"?>
<!-- Generator: Adobe Illustrator 16.0.0, SVG Export Plug-In . SVG Version: 6.00 Build 0)  -->
<!DOCTYPE svg PUBLIC "-//W3C//DTD SVG 1.1//EN" "http://www.w3.org/Graphics/SVG/1.1/DTD/svg11.dtd">
<svg version="1.1" id="KoPub돋움" xmlns="http://www.w3.org/2000/svg" xmlns:xlink="http://www.w3.org/1999/xlink" x="0px"
	 y="0px" width="1028.98px" height="137.708px" viewBox="0 0 1028.98 137.708" enable-background="new 0 0 1028.98 137.708"
	 xml:space="preserve">
<g>
	<rect x="0.479" y="11.989" fill="#FFFFFF" width="184.3" height="72.252"/>
	<g>
		<g>
			<text transform="matrix(1 0 0 1 904.5117 115.7573)" font-family="'KoPubDotumPL-KSCpc-EUC-H'" font-size="9.5">2017년 8월 16일 수요일 (4203호)</text>
		</g>
		<text transform="matrix(1 0 0 1 0.7627 116.189)" font-family="'KoPubDotumPL-KSCpc-EUC-H'" font-size="9.5">대표전화 02-324-4141  구독문의 080-850-0041</text>
		<rect x="809.146" y="12.919" fill="none" stroke="#000000" stroke-miterlimit="10" width="219.264" height="71.322"/>
		<g>
			<g>
				<g>
					<path fill-rule="evenodd" clip-rule="evenodd" d="M453.711,4.023c2.908,1.392,5.762,2.833,7.052,5.821
						c1.749,4.048,0.826,16.581,0.784,22.389h-11.755V10.74c-6.38-1.008-12.762-2.015-19.143-3.023
						c-0.299,1.008-0.597,2.015-0.896,3.023c3.037,1.37,5.786,2.922,7.053,6.045c1.003,2.474,0.672,6.468,0.672,9.852v19.03
						c-5.188,2.074-11.659,1.806-18.136,2.8c-1.835,0.282-5.793,0.471-6.717-0.448c-1.114-1.109-0.56-5.305-0.56-7.388V20.144
						c-6.493-0.672-12.986-1.344-19.479-2.015c-0.224,1.082-0.448,2.164-0.672,3.246c2.852,0.456,6.053,1.913,7.053,4.254
						c2.817,6.595-1.641,21.93,1.903,27.763c1.995,3.282,7.722,4.382,13.434,3.47c4.589-0.559,9.18-1.119,13.769-1.679
						c3.151-0.69,6.399-1.945,9.404-2.351v33.921h10.299c1.18-3.119,0.947-6.836,1.567-10.635c0.698-4.275,0.448-9.379,0.448-14.218
						V39.286h11.755v48.585h10.411c0.461-3.666,1.042-7.922,1.679-11.979c0.074-2.947,0.149-5.897,0.224-8.844V4.135
						C467.443,3.09,461.024,2.045,454.606,1C454.308,2.007,454.009,3.016,453.711,4.023z M544.164,10.292
						c1.264,3.062,0.671,8.549,0.671,12.65v26.643h11.194c1.989-13.076,1.837-29.613,1.791-45.114
						c-6.754-1.12-13.508-2.239-20.263-3.358c-0.298,1.119-0.596,2.239-0.896,3.358v0.112C539.708,5.25,543.06,7.62,544.164,10.292z
						 M627.563,10.18c1.519,3.515,0.673,11.875,0.673,16.68V64.25h11.305c0.373-2.387,0.748-4.777,1.121-7.165
						c0.187-2.351,0.372-4.703,0.56-7.053V4.358c-6.718-1.082-13.435-2.164-20.151-3.246c-0.298,1.157-0.598,2.314-0.896,3.47
						C623.188,5.495,626.375,7.427,627.563,10.18z M310.755,39.958h7.053c0.964-9.289,1.042-20.85,1.007-31.569
						c-4.179-0.672-8.359-1.343-12.538-2.015c-0.188,0.708-0.374,1.417-0.56,2.127c5.231,2.105,5.147,4.292,5.038,11.53h-10.411
						v4.478h10.411V39.958z M368.631,8.389c-4.179-0.672-8.358-1.343-12.537-2.015c-0.187,0.708-0.374,1.417-0.561,2.127
						c1.924,0.79,3.93,1.763,4.702,3.694c0.983,2.458,0.336,7.109,0.336,10.188v22.501h7.052c0.336-2.165,0.672-4.33,1.007-6.494
						V25.852h8.844v-4.365h-8.844V8.389z M515.953,46.451c8.549-2.512,15.562-8.121,15.562-19.143
						c-0.002-3.936-0.872-7.004-2.353-9.516c-4.188-7.107-12.031-10.681-23.508-10.523c-2.239,0.336-4.477,0.672-6.717,1.008
						c-6.458,1.9-11.602,5.575-14.104,11.419C476.819,38.402,497.707,51.813,515.953,46.451z M496.475,22.942
						c1.056-3.043,3.366-5.519,6.268-6.716c1.083-0.262,2.165-0.523,3.247-0.784c16.788-0.223,17.11,21.44,2.912,23.845
						C499.82,40.824,493.564,31.323,496.475,22.942z M592.86,36.824c0.896-1.045,1.79-2.091,2.687-3.135
						c0.187-0.149,0.372-0.299,0.56-0.448c6.678,6.231,13.36,12.464,20.039,18.695h0.224c1.717-1.306,3.434-2.612,5.148-3.918
						c0.291-1.556-1.063-3.814-1.679-5.037c-1.497-2.974-2.812-5.826-5.934-7.165c-2.144-0.92-4.413-1.305-6.269-2.463
						c-2.425-1.903-4.851-3.807-7.276-5.709c-0.073-0.113-0.149-0.224-0.224-0.336c1.249-1.37,6.789-8.656,5.261-11.418
						c-0.657-1.356-3.285-1.85-4.703-2.463c-4.736-2.052-9.476-4.105-14.215-6.157c-0.711,1.231-1.419,2.463-2.127,3.694
						c7.085,3.767,7.193,9.062,3.806,16.792c-2.962,6.757-8.65,12.028-14.218,16.232l-7.163,5.262
						c1.306,1.604,2.611,3.209,3.919,4.813c1.488-0.007,5.53-3.202,6.939-4.142C583.23,46.191,588.7,41.991,592.86,36.824z
						 M671.336,36.935c2.583,1.99,7.753,1.567,12.312,1.567h27.65c4.822,0,10.667,0.763,12.092-2.687
						c0.63-1.529,0.334-4.228,0.334-6.27c0-4.929,1.078-17.993-1.567-19.926c-2.416-1.767-12.34-0.896-16.567-0.896h-43.435
						c-0.037,1.045-0.074,2.089-0.112,3.135C676.208,12.263,664.028,31.311,671.336,36.935z M682.194,15.778h19.253
						c2.885,0,6.835-0.396,8.845,0.559c0.898,2.397,0.902,12.046,0,14.441c-2.561,1.508-16.043,0.671-20.486,0.671
						c-1.973,0-5.221,0.434-6.604-0.335C681.881,30.458,681.481,18.336,682.194,15.778z M289.821,28.203
						c4.216,3.806,8.434,7.613,12.65,11.419c0.783-0.336,1.567-0.672,2.35-1.008c0.208-1-0.303-2.492-0.56-3.471
						c-1.537-5.869-2.878-4.284-7.276-6.828c-1.38-1.082-2.761-2.165-4.142-3.247c-0.149-0.187-0.299-0.373-0.448-0.56
						c0.819-1.521,4.502-6.428,3.247-8.844c-0.735-1.533-9.369-4.668-11.419-5.597c-0.485,0.746-0.97,1.493-1.455,2.239
						c1.22,1.263,2.797,1.973,3.471,3.806c0.941,2.562-0.501,5.634-1.231,7.388c-1.979,4.753-8.25,12.132-12.763,14.105
						c-0.208,0.705,1.696,2.688,2.463,3.247c3.536-1.908,6.603-4.394,9.628-6.829C286.164,32.084,287.993,30.144,289.821,28.203z
						 M350.72,24.957c0.75-1.281,3.492-6.53,2.239-8.396c-1.08-1.607-5.669-1.007-8.284-1.007
						c-4.413,0.001-10.18,0.705-13.994-0.336c-1.808-0.493-3.397-1.376-4.925-2.126c-0.373,0.448-0.747,0.896-1.12,1.343
						c0.174,1.369,3.776,4.24,4.813,5.597h14.554c-3.005,7.887-5.506,9.803-12.315,13.77c-1.679,0.858-3.358,1.717-5.037,2.575
						c-0.037,0.075-0.075,0.149-0.112,0.224c0.634,1.007,1.269,2.015,1.904,3.023c1.067,0.385,5.528-1.907,6.829-2.463
						C342.169,34.211,347.089,31.159,350.72,24.957z M317.92,43.652c-1.491-1.01-8.005-0.448-10.523-0.448
						c-8.479,0-19.087,0.926-24.964-1.791c-0.336,0.597-0.672,1.194-1.008,1.791c1.903,1.456,3.806,2.911,5.709,4.366h17.24
						c1.544,0,4.752-0.482,5.821,0.224c0.953,0.629,0.572,10.458,0.56,12.649h7.053C318.082,57.958,320.217,45.21,317.92,43.652z
						 M683.985,45.332c-12.757,0-25.292,0.199-34.145-3.359c-0.635,1.045-1.268,2.091-1.903,3.134
						c3.247,2.389,6.493,4.778,9.74,7.165h33.359v18.36h11.083c0.484-2.648,0.971-5.299,1.454-7.948
						c0.075-3.471,0.149-6.941,0.225-10.412h32.913v-6.94H683.985z M353.294,56.189c-2.659,0-6.469,0.426-8.396-0.447
						c-0.824-3.387-0.248-8.386-0.224-12.203c-4.216-0.224-8.434-0.448-12.65-0.671c-0.112,0.709-0.224,1.417-0.336,2.126
						c1.989,0.621,3.866,0.712,4.591,2.575c1.29,3.317-0.693,8.604,1.119,11.195c1.445,2.064,5.095,1.79,8.62,1.79
						c6.156-0.036,12.314-0.075,18.471-0.112c2.314-0.149,4.628-0.297,6.941-0.446c0.506-0.548,0.261-2.825,0.224-3.808H353.294z
						 M519.088,80.372c-0.996-1.383-0.838-4.145-0.784-6.607h27.426c3.218,0,8.788,0.744,10.861-0.668
						c1.91-1.307,1.229-6.607,1.229-9.741c0-2.47,0.493-6.365-0.561-7.948c-1.529-2.307-10.946-1.457-15-1.457h-21.828
						c-3.844-0.074-7.688-0.149-11.531-0.224c-3.134-0.514-5.908-1.319-8.621-2.015c-0.447,0.932-0.896,1.866-1.344,2.797
						c3.098,2.165,6.195,4.33,9.292,6.495h27.314c2.76-0.002,6.84-0.471,8.845,0.447c0.578,1.481,0.624,3.818-0.224,5.037
						c-4.423,0.982-10.584,0.227-15.449,0.225h-31.121c-0.037,1.008-0.074,2.014-0.112,3.023c3.313,0.645,6.565,0.907,7.501,3.918
						c1.663,5.352-1.486,10.992,3.582,13.32c3.607,1.656,10.771,0.785,15.673,0.785c12.333,0,25.253-0.268,36.494-0.785v-6.27
						h-28.099C528.424,80.706,522.671,81.413,519.088,80.372z M602.487,80.594c-1.731-2.562-0.822-13.682-0.783-18.023
						c-6.756-0.337-13.51-0.672-20.262-1.009c-0.149,1.157-0.3,2.314-0.45,3.471c3.621,0.182,6.671,1.668,7.503,4.703
						c1.759,6.42-1.9,13.561,3.246,16.903c3.292,2.143,10.525,1.344,15.783,1.344h26.532c3.805-0.262,7.612-0.523,11.418-0.783
						v-6.27h-28.882C612.201,80.93,606.253,81.659,602.487,80.594z M682.864,80.594c-1.72-2.438-0.821-13.672-0.783-17.911
						c-6.79-0.373-13.584-0.747-20.373-1.121c-0.151,1.084-0.3,2.166-0.449,3.247c0.552,0.418,1.459,0.35,2.24,0.562
						c2.285,0.613,4.396,1.551,5.149,3.693c2.092,5.949-1.672,13.779,3.134,17.352c3.149,2.34,10.305,1.566,15.672,1.566h26.868
						c3.844-0.262,7.688-0.523,11.53-0.783v-6.27h-28.993C692.52,80.93,686.574,81.672,682.864,80.594z"/>
				</g>
			</g>
		</g>
		<line fill="none" stroke="#BB044D" stroke-width="3" stroke-miterlimit="10" x1="0" y1="123.119" x2="1028.98" y2="123.119"/>
		<g>
			<path fill="#BB044D" d="M488.053,116.962h-1.995v-4.834c0-0.5-0.138-0.879-0.414-1.135c-0.235-0.215-0.537-0.322-0.905-0.322
				c-0.378,0-0.68,0.104-0.905,0.307c-0.286,0.256-0.429,0.641-0.429,1.15v4.834h-1.995v-7.994h1.949v0.736
				c0.521-0.551,1.187-0.828,1.995-0.828c0.389,0,0.744,0.061,1.065,0.184c0.323,0.123,0.595,0.297,0.822,0.523
				c0.296,0.295,0.506,0.631,0.629,1.004s0.184,0.795,0.184,1.266V116.962z"/>
			<path fill="#BB044D" d="M496.155,116.962h-1.949v-0.691c-0.276,0.277-0.558,0.475-0.844,0.592
				c-0.287,0.117-0.66,0.176-1.121,0.176c-0.889,0-1.561-0.232-2.018-0.697c-0.454-0.465-0.682-1.066-0.682-1.803
				c0-0.686,0.22-1.232,0.66-1.643c0.48-0.449,1.17-0.674,2.07-0.674h1.887v-0.4c0-0.439-0.114-0.76-0.344-0.957
				c-0.23-0.201-0.612-0.301-1.144-0.301c-0.389,0-0.687,0.047-0.89,0.139c-0.205,0.092-0.42,0.266-0.645,0.521l-1.273-1.242
				c0.389-0.42,0.792-0.709,1.211-0.867c0.42-0.158,0.979-0.238,1.674-0.238c2.27,0,3.406,0.941,3.406,2.824V116.962z
				 M494.159,114.017v-0.43h-1.58c-0.746,0-1.119,0.301-1.119,0.904c0,0.613,0.384,0.922,1.15,0.922c0.317,0,0.562-0.023,0.736-0.07
				s0.354-0.156,0.537-0.33S494.159,114.507,494.159,114.017z"/>
			<path fill="#BB044D" d="M504.777,113.587h-5.001c0,0.531,0.152,0.961,0.46,1.287c0.307,0.328,0.736,0.492,1.288,0.492
				c0.41,0,0.744-0.057,1.006-0.168c0.26-0.113,0.529-0.307,0.805-0.584l1.212,1.182c-0.439,0.439-0.882,0.76-1.327,0.959
				c-0.444,0.199-1.014,0.299-1.709,0.299c-1.096,0-1.949-0.277-2.563-0.828c-0.757-0.676-1.136-1.766-1.136-3.268
				c0-1.279,0.317-2.279,0.951-3c0.635-0.721,1.479-1.082,2.532-1.082c1.084,0,1.943,0.363,2.577,1.09
				c0.604,0.695,0.905,1.605,0.905,2.73V113.587z M502.813,112.222c0-0.277-0.059-0.553-0.176-0.83
				c-0.119-0.275-0.289-0.488-0.514-0.637c-0.227-0.146-0.502-0.223-0.829-0.223c-0.328,0-0.604,0.076-0.829,0.223
				c-0.225,0.148-0.396,0.361-0.514,0.637c-0.117,0.277-0.176,0.553-0.176,0.83H502.813z"/>
			<path fill="#BB044D" d="M508.49,107.603h-1.995v-1.625h1.995V107.603z M508.49,116.962h-1.995v-7.994h1.995V116.962z"/>
			<path fill="#BB044D" d="M514.043,116.962h-1.136c-0.767,0-1.36-0.236-1.78-0.705c-0.367-0.42-0.552-0.947-0.552-1.582v-8.637
				h1.995v8.516c0,0.48,0.234,0.721,0.705,0.721h0.768V116.962z"/>
			<path fill="#BB044D" d="M517.756,116.962h-2.285v-2.271h2.285V116.962z"/>
			<path fill="#BB044D" d="M525.641,115.964c-0.695,0.727-1.574,1.09-2.639,1.09c-0.961,0-1.754-0.277-2.377-0.828
				c-0.797-0.707-1.197-1.795-1.197-3.268s0.395-2.557,1.182-3.254c0.623-0.551,1.422-0.828,2.393-0.828
				c1.074,0,1.953,0.357,2.639,1.074l-1.35,1.35c-0.205-0.225-0.406-0.385-0.605-0.482s-0.428-0.146-0.684-0.146
				c-0.471,0-0.85,0.18-1.143,0.537c-0.291,0.359-0.438,0.941-0.438,1.75c0,0.818,0.146,1.406,0.438,1.764
				c0.293,0.357,0.672,0.537,1.143,0.537s0.9-0.209,1.289-0.629L525.641,115.964z"/>
			<path fill="#BB044D" d="M533.527,112.958c0,0.797-0.061,1.422-0.184,1.871s-0.363,0.863-0.721,1.242
				c-0.277,0.297-0.619,0.535-1.029,0.715c-0.408,0.178-0.895,0.268-1.457,0.268c-0.553,0-1.033-0.09-1.441-0.268
				c-0.41-0.18-0.754-0.418-1.029-0.715c-0.348-0.357-0.586-0.775-0.713-1.25c-0.129-0.477-0.191-1.098-0.191-1.863
				c0-0.789,0.061-1.406,0.184-1.857c0.123-0.449,0.363-0.863,0.721-1.242c0.275-0.297,0.6-0.527,0.967-0.691
				c0.439-0.193,0.941-0.291,1.504-0.291c0.553,0,1.053,0.098,1.504,0.291c0.379,0.164,0.705,0.395,0.982,0.691
				c0.348,0.357,0.584,0.775,0.713,1.25C533.463,111.585,533.527,112.201,533.527,112.958z M531.533,112.958
				c0-0.523-0.025-0.924-0.076-1.205c-0.053-0.281-0.18-0.523-0.385-0.729c-0.236-0.234-0.549-0.354-0.936-0.354
				c-0.379,0-0.686,0.119-0.92,0.354c-0.184,0.184-0.307,0.432-0.369,0.744c-0.061,0.312-0.092,0.707-0.092,1.189
				c0,0.645,0.035,1.088,0.107,1.334s0.189,0.451,0.354,0.613c0.234,0.236,0.541,0.354,0.92,0.354c0.387,0,0.699-0.117,0.936-0.354
				c0.184-0.184,0.307-0.432,0.369-0.744C531.502,113.851,531.533,113.449,531.533,112.958z"/>
			<path fill="#BB044D" d="M546.629,116.962h-1.994v-4.834c0-0.5-0.139-0.879-0.414-1.135c-0.234-0.215-0.537-0.322-0.904-0.322
				c-0.359,0-0.656,0.104-0.891,0.307c-0.295,0.256-0.445,0.625-0.445,1.105v4.879h-1.994v-4.834c0-0.5-0.137-0.879-0.414-1.135
				c-0.236-0.215-0.537-0.322-0.906-0.322c-0.377,0-0.68,0.104-0.904,0.307c-0.287,0.256-0.43,0.641-0.43,1.15v4.834h-1.994v-7.994
				h1.949v0.736c0.254-0.266,0.557-0.471,0.904-0.613s0.711-0.215,1.09-0.215c0.92,0,1.627,0.338,2.117,1.014
				c0.645-0.676,1.441-1.014,2.393-1.014c0.398,0,0.77,0.061,1.113,0.184c0.342,0.123,0.625,0.297,0.852,0.523
				c0.307,0.307,0.529,0.646,0.666,1.02c0.139,0.373,0.207,0.789,0.207,1.25V116.962z"/>
		</g>
		<g>
			<polyline fill="none" stroke="#BB044D" stroke-width="0.993" points="72.981,12.919 183.744,12.919 183.744,83.694 0.975,83.694 
				0.975,36.212 			"/>
			<g>
				<path fill="#BB044D" d="M132.918,43.199c-2.554,2.115-4.686,4.458-6.225,6.945c-2.159,3.482-2.499,6.857-2.499,6.857
					c-0.529,4.72,0.883,9.116,4.527,12.217c4.372,3.72,10.958,4.753,17.938,3.368c6.902-1.371,13.933-5.067,19.344-10.583
					c2.488-2.535,4.38-5.213,5.705-7.885c-0.783,1.014-1.655,2.016-2.623,2.996c-5.231,5.295-12.083,8.831-18.844,10.125
					c-6.838,1.314-13.329,0.297-17.695-3.295c-2.212-1.821-3.627-4.105-4.296-6.641c0,0-1.992-5.893,3.905-13.211L132.918,43.199"/>
				<path fill="#BB044D" d="M165.573,53.843c2.552-2.115,4.682-4.457,6.223-6.947c2.155-3.479,2.497-6.853,2.497-6.853
					c0.529-4.721-0.881-9.115-4.526-12.216c-4.373-3.721-10.959-4.758-17.937-3.371c-6.904,1.373-13.937,5.067-19.344,10.584
					c-2.488,2.534-4.384,5.214-5.707,7.884c0.783-1.013,1.655-2.016,2.623-2.997c5.231-5.294,12.081-8.829,18.846-10.125
					c6.834-1.312,13.329-0.295,17.695,3.296c2.209,1.821,3.625,4.103,4.296,6.642c0,0,1.99,5.891-3.906,13.21L165.573,53.843"/>
				<path fill="#BB044D" d="M160.497,56.323c-3.405,0.541-2.1-3.608-2.1-3.608l2.112-7.282c1.292-4.741-1.986-6.111-1.986-6.111
					c-6.629-3.166-11.377,4.712-12.604,7.035l0.57-1.997c0.869-3.588-2.232-4.667-2.232-4.667
					c-5.313-1.873-11.339,3.506-11.339,3.506c2.013-1.731,5.037-2.445,5.037-2.445c3.406-0.543,2.099,3.606,2.099,3.606
					l-3.843,13.424h6.438l2.466-8.625c3.862-7.714,7.568-7.855,7.568-7.855c2.763,0.03,1.387,4.129,1.387,4.129l-2.11,7.282
					c-0.867,3.584,2.234,4.663,2.234,4.663c5.31,1.876,11.341-3.504,11.341-3.504C163.516,55.606,160.497,56.323,160.497,56.323"/>
			</g>
			<g>
				<g>
					<path fill="#3E3A39" d="M18.433,55.14c0,0.183-0.06,0.244-0.239,0.244h-1.894v1.565h3.037v0.835h-7.054v-0.835h3.02v-1.565
						h-1.894c-0.179,0-0.23-0.061-0.23-0.244v-4.053h0.972v1.27h3.318v-1.27h0.964V55.14z M17.469,54.549v-1.365h-3.318v1.365
						H17.469z"/>
					<path fill="#3E3A39" d="M26.55,55.906H23.54v2.74h-0.981v-2.74h-3.045V55.08h7.037V55.906z M25.672,54.305
						c-1.374-0.409-2.201-0.878-2.645-1.618c-0.452,0.731-1.313,1.261-2.618,1.626l-0.64-0.722c1.621-0.4,2.721-1.035,2.729-2.174
						v-0.4h1.066v0.392c-0.009,1.087,1.049,1.783,2.687,2.192L25.672,54.305z"/>
					<path fill="#3E3A39" d="M28.662,54.966c-0.938-0.2-1.535-0.965-1.535-1.948c0-1.13,0.819-1.992,2.039-1.992
						s2.039,0.861,2.039,1.992c0,0.992-0.605,1.757-1.552,1.948v1.279c0.623-0.026,1.569-0.079,2.115-0.166v0.826
						c-0.998,0.148-2.508,0.191-4.12,0.191c-0.307,0-0.733,0-0.861-0.009v-0.835h1.876V54.966z M29.166,51.853
						c-0.683,0-1.066,0.487-1.066,1.166c0,0.661,0.384,1.183,1.066,1.183c0.682,0,1.066-0.522,1.066-1.183
						C30.232,52.34,29.848,51.853,29.166,51.853z M32.953,50.861v2.975h1.015v0.878h-1.015v3.931h-0.964v-7.784H32.953z"/>
					<path fill="#3E3A39" d="M36.284,54.818c1.262-0.53,1.97-1.452,1.97-2.47v-0.331h-1.45v-0.826h3.915v0.826h-1.45v0.356
						c0,1.044,0.861,1.879,1.825,2.209l-0.605,0.713c-0.776-0.356-1.476-1-1.723-1.444c-0.213,0.548-1.006,1.261-1.783,1.635
						L36.284,54.818z M37.938,58.498c-0.179,0-0.23-0.061-0.23-0.244v-2.261h0.973v1.67h4.324v0.835H37.938z M42.817,50.861v5.749
						h-0.955v-5.749H42.817z"/>
					<path fill="#3E3A39" d="M49.578,55.14c0,0.183-0.06,0.244-0.239,0.244h-1.894v1.565h3.036v0.835h-7.054v-0.835h3.02v-1.565
						h-1.894c-0.179,0-0.23-0.061-0.23-0.244v-4.053h0.973v1.27h3.318v-1.27h0.964V55.14z M48.614,54.549v-1.365h-3.318v1.365
						H48.614z"/>
					<path fill="#3E3A39" d="M57.695,55.114h-7.037V54.41h7.037V55.114z M56.544,51c0.179,0,0.239,0.061,0.239,0.243v1.305
						c0,0.183-0.06,0.244-0.239,0.244h-3.966v0.47h4.341v0.678h-5.143c-0.179,0-0.239-0.061-0.239-0.243v-1.305
						c0-0.183,0.06-0.244,0.239-0.244h3.966v-0.47h-4.205V51H56.544z M56.561,55.619c0.179,0,0.239,0.061,0.239,0.244v1.313
						c0,0.183-0.06,0.243-0.239,0.243h-3.975v0.496h4.401v0.678h-5.203c-0.179,0-0.239-0.061-0.239-0.244v-1.322
						c0-0.183,0.06-0.244,0.239-0.244h3.983v-0.487h-4.222v-0.679H56.561z"/>
					<path fill="#3E3A39" d="M60.856,54.636c-0.179,0-0.23-0.061-0.23-0.243v-3.34h0.956v2.713l1.041-0.009
						c0.682-0.009,1.774-0.148,2.303-0.27v0.844c-0.486,0.122-1.467,0.278-2.396,0.296C62.306,54.636,60.864,54.636,60.856,54.636z
						 M61.641,55.514h4.648c0.179,0,0.239,0.061,0.239,0.244v2.557c0,0.183-0.06,0.244-0.239,0.244h-4.648
						c-0.179,0-0.239-0.061-0.239-0.244v-2.557C61.402,55.575,61.461,55.514,61.641,55.514z M65.573,57.758v-1.435h-3.216v1.435
						H65.573z M66.528,50.861v4.357h-0.964v-2.444h-1.996v-0.826h1.996v-1.087H66.528z"/>
					<path fill="#3E3A39" d="M71.668,54.349c-0.085,1.844-0.87,2.679-1.97,2.679c-1.16,0-1.979-0.931-1.979-2.983
						s0.819-2.983,1.979-2.983c1.049,0,1.817,0.757,1.953,2.418h1.186v-2.618h0.973v7.784h-0.973v-4.296H71.668z M68.683,54.036
						c0,1.2,0.324,2.114,1.015,2.114s1.015-0.914,1.015-2.114s-0.324-2.096-1.015-2.096S68.683,52.835,68.683,54.036z"/>
					<path fill="#3E3A39" d="M13.136,69.741c-0.179,0-0.23-0.061-0.23-0.244v-5.279h0.973v4.645l0.657-0.018
						c0.324-0.009,1.1-0.096,1.433-0.165v0.844c-0.281,0.069-1.177,0.191-1.774,0.2C13.989,69.732,13.17,69.75,13.136,69.741z
						 M16.241,71.271v-7.279h0.93v2.479h0.751v-2.618h0.93v7.793h-0.93v-4.219H17.17v3.844H16.241z"/>
					<path fill="#3E3A39" d="M22.071,65.818c0-1.061,0.844-1.887,2.004-1.887c1.194,0,2.004,0.826,2.004,1.887
						c0,1.096-0.81,1.905-2.004,1.905C22.916,67.723,22.071,66.914,22.071,65.818z M24.076,66.896c0.631,0,1.032-0.47,1.032-1.07
						c0-0.617-0.401-1.061-1.032-1.061s-1.032,0.444-1.032,1.061C23.043,66.427,23.444,66.896,24.076,66.896z M23.325,71.593
						c-0.179,0-0.239-0.061-0.239-0.244v-1.556c0-0.183,0.06-0.244,0.239-0.244h3.881v-0.583h-4.12v-0.766h4.896
						c0.179,0,0.239,0.061,0.239,0.244v1.548c0,0.183-0.06,0.243-0.239,0.243h-3.864v0.592h4.265v0.766H23.325z M28.238,63.853
						v4.027h-0.964v-4.027H28.238z"/>
					<path fill="#3E3A39" d="M36.031,67.714h-7.037v-0.783h7.037V67.714z M32.508,66.497c-1.749,0-2.797-0.531-2.797-1.339
						c0-0.792,1.058-1.348,2.797-1.348c1.74,0,2.798,0.557,2.798,1.348C35.306,65.966,34.257,66.497,32.508,66.497z M34.914,70.246
						h-3.958v0.617h4.359v0.73h-5.212c-0.179,0-0.239-0.061-0.239-0.244v-1.53c0-0.183,0.06-0.243,0.239-0.243h3.958v-0.583h-4.197
						v-0.739h5.05c0.179,0,0.239,0.061,0.239,0.244v1.504C35.152,70.184,35.092,70.246,34.914,70.246z M32.508,64.505
						c-1.041,0-1.749,0.235-1.749,0.652c0,0.382,0.717,0.644,1.749,0.644c1.032,0,1.749-0.261,1.749-0.644
						C34.257,64.74,33.549,64.505,32.508,64.505z"/>
					<path fill="#3E3A39" d="M38.663,65.261h4.452v0.835h-4.452V65.261z M40.906,70.289c-1.194,0-2.004-0.8-2.004-1.896
						c0-1.087,0.776-1.887,2.004-1.887c1.228,0,2.004,0.8,2.004,1.887C42.91,69.488,42.1,70.289,40.906,70.289z M39.711,63.965h2.38
						v0.8h-2.38V63.965z M40.906,67.34c-0.64,0-1.015,0.461-1.015,1.052c0,0.609,0.384,1.061,1.015,1.061s1.015-0.452,1.015-1.061
						C41.921,67.801,41.537,67.34,40.906,67.34z M43.771,71.636v-7.775h0.956v3.096h1.041v0.896h-1.041v3.783H43.771z"/>
					<path fill="#3E3A39" d="M46.541,64.322h3.079c0.179,0,0.239,0.061,0.239,0.244v0.843h1.322v-1.548h0.972v7.785h-0.972v-3.314
						h-1.322v1.157c0,0.183-0.06,0.244-0.239,0.244h-3.088c-0.179,0-0.23-0.052-0.23-0.235v-4.931
						C46.302,64.383,46.361,64.322,46.541,64.322z M48.903,68.906v-3.757h-1.646v3.757H48.903z M49.858,66.244v1.244h1.322v-1.244
						H49.858z"/>
					<path fill="#3E3A39" d="M56.021,69.741c-0.179,0-0.23-0.061-0.23-0.244v-5.279h0.972v4.645l0.657-0.018
						c0.324-0.009,1.1-0.096,1.433-0.165v0.844c-0.281,0.069-1.177,0.191-1.774,0.2C56.875,69.732,56.056,69.75,56.021,69.741z
						 M59.126,71.271v-7.279h0.93v2.479h0.751v-2.618h0.93v7.793h-0.93v-4.219h-0.751v3.844H59.126z"/>
					<path fill="#3E3A39" d="M62.697,65.818c0-1.061,0.844-1.887,2.004-1.887c1.194,0,2.004,0.826,2.004,1.887
						c0,1.096-0.81,1.905-2.004,1.905C63.542,67.723,62.697,66.914,62.697,65.818z M64.702,66.896c0.631,0,1.032-0.47,1.032-1.07
						c0-0.617-0.401-1.061-1.032-1.061s-1.032,0.444-1.032,1.061C63.669,66.427,64.07,66.896,64.702,66.896z M63.951,71.593
						c-0.179,0-0.239-0.061-0.239-0.244v-1.556c0-0.183,0.06-0.244,0.239-0.244h3.881v-0.583h-4.12v-0.766h4.896
						c0.179,0,0.239,0.061,0.239,0.244v1.548c0,0.183-0.06,0.243-0.239,0.243h-3.864v0.592h4.265v0.766H63.951z M68.864,63.853
						v4.027H67.9v-4.027H68.864z"/>
					<path fill="#3E3A39" d="M76.657,67.714H69.62v-0.783h7.037V67.714z M73.134,66.497c-1.749,0-2.797-0.531-2.797-1.339
						c0-0.792,1.058-1.348,2.797-1.348c1.74,0,2.798,0.557,2.798,1.348C75.932,65.966,74.883,66.497,73.134,66.497z M75.54,70.246
						h-3.958v0.617h4.359v0.73h-5.212c-0.179,0-0.239-0.061-0.239-0.244v-1.53c0-0.183,0.06-0.243,0.239-0.243h3.958v-0.583H70.49
						v-0.739h5.05c0.179,0,0.239,0.061,0.239,0.244v1.504C75.778,70.184,75.718,70.246,75.54,70.246z M73.134,64.505
						c-1.041,0-1.749,0.235-1.749,0.652c0,0.382,0.717,0.644,1.749,0.644c1.032,0,1.749-0.261,1.749-0.644
						C74.883,64.74,74.175,64.505,73.134,64.505z"/>
					<path fill="#3E3A39" d="M79.604,64.313h4.12v0.817h-1.552v0.679c0,1.54,0.588,2.731,1.953,3.522l-0.682,0.669
						c-0.811-0.539-1.493-1.278-1.783-2.026c-0.29,0.817-1.041,1.652-1.808,2.218l-0.793-0.652c1.262-0.765,2.081-1.992,2.081-3.774
						v-0.635h-1.535V64.313z M84.722,71.646v-7.785h0.964v7.785H84.722z"/>
					<path fill="#3E3A39" d="M86.493,65h4.461v0.73h-4.461V65z M88.719,68.454c-1.271,0-1.987-0.557-1.987-1.227
						c0-0.678,0.708-1.218,1.987-1.218s1.987,0.54,1.987,1.218C90.706,67.897,89.99,68.454,88.719,68.454z M87.286,70.315
						c0-0.879,0.913-1.461,2.687-1.461c1.783,0,2.704,0.583,2.704,1.461c0,0.87-0.921,1.461-2.704,1.461
						C88.198,71.776,87.286,71.185,87.286,70.315z M87.516,63.826h2.388v0.731h-2.388V63.826z M88.719,66.67
						c-0.597,0-0.998,0.2-0.998,0.557c0,0.374,0.401,0.539,0.998,0.539s0.998-0.165,0.998-0.539
						C89.717,66.871,89.316,66.67,88.719,66.67z M88.318,70.315c0,0.495,0.648,0.713,1.655,0.713c1.023,0,1.646-0.208,1.646-0.713
						s-0.623-0.713-1.646-0.713C88.966,69.602,88.318,69.819,88.318,70.315z M91.551,68.792v-4.931h0.947v1.209h0.981v0.835h-0.981
						v0.861h0.981v0.826h-0.981v1.2H91.551z"/>
					<path fill="#3E3A39" d="M93.808,65.044h4.461v0.757h-4.461V65.044z M96.034,68.819c-1.271,0-1.987-0.609-1.987-1.348
						c0-0.748,0.708-1.339,1.987-1.339c1.28,0,1.987,0.591,1.987,1.339C98.021,68.21,97.305,68.819,96.034,68.819z M94.832,63.826
						h2.38v0.74h-2.38V63.826z M95.07,71.498c-0.179,0-0.23-0.061-0.23-0.244V69.28h0.989v1.383h4.222v0.835H95.07z M96.034,66.862
						c-0.597,0-0.998,0.217-0.998,0.609c0,0.417,0.401,0.609,0.998,0.609s0.998-0.191,0.998-0.609
						C97.032,67.079,96.631,66.862,96.034,66.862z M99.83,63.861v2.287h0.998v0.87H99.83v2.618h-0.964v-5.775H99.83z"/>
					<path fill="#3E3A39" d="M101.524,69.758c-0.179,0-0.23-0.061-0.23-0.244v-4.949c0-0.183,0.06-0.244,0.239-0.244h3.267v0.826
						h-2.55v3.766h0.947c0.836,0,2.252-0.226,2.439-0.27v0.835c-0.23,0.035-1.595,0.278-2.815,0.278H101.524z M105.943,71.636
						v-7.775h0.955v2.661h1.032v0.878h-1.032v4.235H105.943z"/>
				</g>
			</g>
		</g>
	</g>
	<g>
		<path fill="#BB044D" d="M9.502,21.515c0,0.403-0.135,0.538-0.538,0.538H1.843c-0.403,0-0.518-0.134-0.518-0.538v-7.582h2.169
			v2.303H7.39v-2.303h2.112V21.515z M3.11,29.865v-6.469h2.15v1.67h6.987v-1.67h2.131v6.469c0,0.403-0.134,0.538-0.538,0.538H3.647
			C3.244,30.402,3.11,30.268,3.11,29.865z M7.39,20.209v-2.15H3.494v2.15H7.39z M12.247,28.655v-1.843H5.26v1.843H12.247z
			 M14.396,13.414v3.283h2.208v1.843h-2.208v4.242h-2.188v-9.368H14.396z"/>
		<path fill="#BB044D" d="M22.386,22.82h-2.591v-2.438h2.591V22.82z"/>
		<path fill="#BB044D" d="M26.477,17.733c0-2.342,1.9-4.165,4.511-4.165c2.688,0,4.511,1.823,4.511,4.165
			c0,2.419-1.824,4.204-4.511,4.204C28.377,21.937,26.477,20.152,26.477,17.733z M30.987,20.113c1.42,0,2.323-1.037,2.323-2.361
			c0-1.363-0.902-2.342-2.323-2.342s-2.323,0.979-2.323,2.342C28.665,19.077,29.567,20.113,30.987,20.113z M29.298,30.479
			c-0.403,0-0.538-0.134-0.538-0.538v-3.436c0-0.403,0.134-0.537,0.538-0.537h8.734v-1.286h-9.271v-1.689h11.018
			c0.403,0,0.538,0.134,0.538,0.538v3.417c0,0.403-0.134,0.538-0.538,0.538h-8.695v1.305h9.598v1.689H29.298z M40.355,13.395v8.888
			h-2.169v-8.888H40.355z"/>
		<path fill="#BB044D" d="M47.768,22.82h-2.591v-2.438h2.591V22.82z"/>
		<path fill="#BB044D" d="M58.193,13.855c0.403,0,0.538,0.135,0.538,0.538c-0.077,1.44-0.365,3.532-0.787,5.26h4.549
			c0.326-1.382,0.595-2.976,0.595-3.974h-3.877v-1.824h5.643c0.403,0,0.538,0.135,0.538,0.538c-0.077,1.267-0.365,3.455-0.749,5.26
			h2.38v1.843h-6.872v2.476h4.3c0.403,0,0.538,0.134,0.538,0.538v5.336c0,0.403-0.135,0.537-0.538,0.537h-10.73
			c-0.403,0-0.538-0.134-0.538-0.537v-5.336c0-0.403,0.135-0.538,0.538-0.538h4.127v-2.476h-6.661v-1.843h4.588
			c0.365-1.382,0.633-3.052,0.633-3.974h-3.724v-1.824H58.193z M62.839,28.56v-2.784h-7.486v2.784H62.839z"/>
	</g>
	<rect x="-1.417" fill="none" width="1028.976" height="137.763"/>
</g>
</svg>
