<?xml version="1.0" encoding="utf-8"?>
<!-- Generator: Adobe Illustrator 16.0.0, SVG Export Plug-In . SVG Version: 6.00 Build 0)  -->
<!DOCTYPE svg PUBLIC "-//W3C//DTD SVG 1.1//EN" "http://www.w3.org/Graphics/SVG/1.1/DTD/svg11.dtd">
<svg version="1.1" id="Layer_3" xmlns="http://www.w3.org/2000/svg" xmlns:xlink="http://www.w3.org/1999/xlink" x="0px" y="0px"
	 width="1028.98px" height="41.329px" viewBox="0 0 1028.98 41.329" enable-background="new 0 0 1028.98 41.329"
	 xml:space="preserve">
<text transform="matrix(1 0 0 1 5.8125 23.5381)" font-family="'Helvetica-Light'" font-size="33">18</text>
<line fill="none" stroke="#000000" stroke-width="0.2" stroke-miterlimit="10" x1="136.795" y1="21.616" x2="1028.98" y2="21.616"/>
<line fill="none" stroke="#000000" stroke-width="0.2" stroke-miterlimit="10" x1="136.795" y1="23.715" x2="1028.98" y2="23.715"/>
<g>
	<path d="M996,16.564c0,0.613-0.085,1.881-0.241,2.381h-1.254v-5.898h-1.411v3.375c0,0.613-0.085,1.881-0.242,2.381h-1.254V14.68
		c-0.854,0.314-2.464,0.514-3.434,0.514c-0.698,0-1.126-0.342-1.126-1.055v-2.051c0-0.811-0.143-0.996-0.94-1.225l0.086-0.385
		l2.351,0.242v3.133c0,0.199,0.072,0.312,0.285,0.312c0.655,0,2.009-0.07,2.778-0.342v-3.031c0-0.785-0.54-1.043-0.926-1.211
		l0.114-0.371l2.308,0.371v2.611h1.411V9.98c0-0.783-0.556-1.043-0.94-1.211l0.113-0.371L996,8.783V16.564z"/>
	<path d="M1006.133,12.074c0,0.699-0.071,1.504-0.214,2.217h-1.354v-4.283c0-0.754-0.484-0.969-0.983-1.182l0.114-0.414l2.437,0.4
		V12.074z"/>
	<path d="M1002.965,11.598c0,1.391-1.105,2.438-2.908,2.438c-1.808,0-2.91-1.047-2.91-2.438c0-1.393,1.103-2.438,2.91-2.438
		C1001.859,9.16,1002.965,10.205,1002.965,11.598 M1001.459,11.598c0-0.826-0.558-1.449-1.402-1.449
		c-0.847,0-1.403,0.609-1.403,1.449c0,0.826,0.558,1.447,1.403,1.447c0.845,0,1.389-0.607,1.389-1.447"/>
	<path d="M1006.489,18.83c-0.499,0.057-1.282,0.1-1.824,0.1h-3.903c-0.649,0-0.97-0.262-0.97-0.896v-0.379
		c0-0.684-0.171-0.799-0.939-0.912l0.014-0.369h5.471c0.172,0,0.229-0.078,0.229-0.258v-0.178c0-0.172-0.064-0.258-0.229-0.258
		h-4.174l-1.14-0.783l0.171-0.342c0.669,0.229,1.125,0.271,1.924,0.271h4.458c0.421,0,0.557,0.156,0.557,0.498v1.391
		c0,0.398-0.143,0.512-0.557,0.512h-4.216v0.521c0,0.227,0.085,0.328,0.299,0.328h4.83V18.83z"/>
	<path d="M1016.212,13.861c0,0.697-0.071,1.502-0.214,2.215h-1.354v-6.068c0-0.754-0.484-0.969-0.983-1.182l0.114-0.414l2.438,0.4
		V13.861z"/>
	<path d="M1011.852,10.557c-0.19,0.654-0.252,0.473-0.606,1.041l0.675,0.555c0.568,0.465,1.021,0.354,1.336,0.725
		c0.274,0.322,0.507,0.855,0.589,1.203l-0.647,0.504l-2.448-2.279c-0.801,1.021-1.851,1.877-3.037,2.543l-0.499-0.598
		c1.565-1.121,2.474-1.887,2.829-3.338c0.146-0.596-0.028-0.875-0.713-1.316l0.271-0.441l2.066,0.896
		C1011.912,10.158,1011.957,10.195,1011.852,10.557"/>
	<path d="M1016.722,18.855c-0.498,0.057-1.281,0.1-1.823,0.1h-3.933c-0.748,0-1.097-0.322-1.097-1.039v-0.785
		c0-0.67-0.2-0.842-0.94-0.969l0.057-0.414l2.451,0.129v1.896c0,0.242,0.085,0.326,0.299,0.326h4.986V18.855z"/>
	<path d="M1026.425,18.855c-0.499,0.057-1.282,0.1-1.824,0.1h-3.932c-0.748,0-1.099-0.322-1.099-1.039v-0.785
		c0-0.67-0.198-0.842-0.94-0.969l0.058-0.414l2.45,0.129v1.896c0,0.242,0.086,0.326,0.3,0.326h4.987V18.855z"/>
	<path d="M1026.176,12.289c0,0.477-0.214,0.656-0.728,0.656h-4.899c-0.656,0-0.971-0.285-0.971-0.898v-1.383
		c0-0.74-0.142-0.855-0.854-0.955l0.015-0.369h6.782c0.463,0,0.655,0.199,0.655,0.584V12.289z M1024.608,11.775v-1.268
		c0-0.229-0.071-0.314-0.299-0.314h-3.164v1.582c0,0.223,0.086,0.314,0.3,0.314h2.864C1024.516,12.09,1024.608,12,1024.608,11.775"
		/>
	<path d="M1027.743,14.627h-3.976v0.623c0,0.584-0.101,1.133-0.214,1.604h-1.325v-2.227h-4.018l-1.197-0.869l0.242-0.385
		c0.698,0.312,1.519,0.398,2.365,0.398h8.122V14.627z"/>
</g>
<text transform="matrix(1.15 0 0 1 136.2007 18.3149)" font-family="'Times-Roman'" font-size="11">book</text>
<g>
	<text transform="matrix(1 0 0 1 889.2109 17.0708)" font-family="'KoPubDotumPL-KSCpc-EUC-H'" font-size="9.5">2017년 7월 28일 금요일</text>
</g>
<rect fill="none" width="1028.98" height="41.305"/>
<text transform="matrix(1 0 0 1 51.2568 33.7363)"><tspan x="0" y="0" fill="#9FA0A0" font-family="'KoPubBatangPL-KSCpc-EUC-H'" font-size="32" letter-spacing="-3">책</tspan><tspan x="26.112" y="-8" fill="#9FA0A0" font-family="'KoPubBatangPL-KSCpc-EUC-H'" font-size="32" letter-spacing="-3">소</tspan><tspan x="52.223" y="0" fill="#9FA0A0" font-family="'KoPubBatangPL-KSCpc-EUC-H'" font-size="32" letter-spacing="-3">개</tspan></text>
</svg>
