<?xml version="1.0" encoding="utf-8"?>
<!-- Generator: Adobe Illustrator 16.0.0, SVG Export Plug-In . SVG Version: 6.00 Build 0)  -->
<!DOCTYPE svg PUBLIC "-//W3C//DTD SVG 1.1//EN" "http://www.w3.org/Graphics/SVG/1.1/DTD/svg11.dtd">
<svg version="1.1" xmlns="http://www.w3.org/2000/svg" xmlns:xlink="http://www.w3.org/1999/xlink" x="0px" y="0px"
	 width="1028.98px" height="41.329px" viewBox="0 0 1028.98 41.329" enable-background="new 0 0 1028.98 41.329"
	 xml:space="preserve">
<g id="Layer_1" display="none">
	<g display="inline">
		<text transform="matrix(1 0 0 1 493.165 16.4062)" font-family="'KoPubBatangPM-KSCpc-EUC-H'" font-size="20" letter-spacing="6">기획</text>
	</g>
	<g display="inline">
		<text transform="matrix(1 0 0 1 995.8672 22.3418)" fill="CMYK=0,0,0,100" font-family="'HelveticaNeue-Light'" font-size="27">21</text>
	</g>
	
		<line display="inline" fill="none" stroke="#000000" stroke-width="0.2" stroke-miterlimit="10" x1="0" y1="21.55" x2="990.105" y2="21.55"/>
	
		<line display="inline" fill="none" stroke="#000000" stroke-width="0.2" stroke-miterlimit="10" x1="0" y1="23.5" x2="990.105" y2="23.5"/>
	<g display="inline">
		<path d="M10.934,16.499c0,0.613-0.085,1.881-0.241,2.38H9.439v-5.897H8.028v3.375c0,0.613-0.085,1.881-0.242,2.381H6.532v-4.123
			c-0.854,0.314-2.464,0.514-3.434,0.514c-0.698,0-1.126-0.342-1.126-1.055v-2.051c0-0.811-0.143-0.996-0.94-1.225l0.086-0.385
			l2.351,0.242v3.133c0,0.199,0.072,0.312,0.285,0.312c0.655,0,2.009-0.07,2.778-0.342v-3.031c0-0.785-0.54-1.043-0.926-1.211
			L5.72,9.145l2.308,0.371v2.611h1.411V9.915c0-0.784-0.556-1.043-0.94-1.211l0.113-0.371l2.322,0.385V16.499z"/>
		<path d="M21.067,12.008c0,0.699-0.071,1.504-0.214,2.217H19.5V9.942c0-0.754-0.484-0.969-0.983-1.182l0.114-0.414l2.437,0.4
			V12.008z"/>
		<path d="M17.899,11.532c0,1.391-1.105,2.437-2.908,2.437c-1.808,0-2.91-1.046-2.91-2.437c0-1.393,1.103-2.438,2.91-2.438
			C16.793,9.094,17.899,10.139,17.899,11.532 M16.393,11.532c0-0.826-0.558-1.449-1.402-1.449c-0.847,0-1.403,0.609-1.403,1.449
			c0,0.825,0.558,1.447,1.403,1.447c0.845,0,1.389-0.607,1.389-1.447"/>
		<path d="M21.423,18.764c-0.499,0.057-1.282,0.1-1.824,0.1h-3.903c-0.649,0-0.97-0.263-0.97-0.896v-0.379
			c0-0.684-0.171-0.799-0.939-0.912l0.014-0.369h5.471c0.172,0,0.229-0.078,0.229-0.258v-0.179c0-0.171-0.064-0.257-0.229-0.257
			h-4.174l-1.14-0.783l0.171-0.342c0.669,0.229,1.125,0.271,1.924,0.271h4.458c0.421,0,0.557,0.157,0.557,0.499v1.391
			c0,0.398-0.143,0.512-0.557,0.512h-4.216v0.521c0,0.227,0.085,0.327,0.299,0.327h4.83V18.764z"/>
		<path d="M31.146,13.795c0,0.697-0.071,1.502-0.214,2.215h-1.354V9.942c0-0.754-0.484-0.969-0.983-1.182l0.114-0.414l2.438,0.4
			V13.795z"/>
		<path d="M26.786,10.49c-0.19,0.655-0.252,0.474-0.606,1.042l0.675,0.554c0.568,0.466,1.021,0.354,1.336,0.725
			c0.274,0.323,0.507,0.855,0.589,1.204l-0.647,0.504l-2.448-2.279c-0.801,1.021-1.851,1.877-3.037,2.543l-0.499-0.599
			c1.565-1.12,2.474-1.886,2.829-3.337c0.146-0.596-0.028-0.875-0.713-1.316l0.271-0.442L26.6,9.985
			C26.846,10.092,26.891,10.129,26.786,10.49"/>
		<path d="M31.656,18.79c-0.498,0.057-1.281,0.1-1.823,0.1H25.9c-0.748,0-1.097-0.322-1.097-1.04v-0.784
			c0-0.67-0.2-0.842-0.94-0.969l0.057-0.414l2.451,0.129v1.896c0,0.242,0.085,0.327,0.299,0.327h4.986V18.79z"/>
		<path d="M41.359,18.79c-0.499,0.057-1.282,0.1-1.824,0.1h-3.932c-0.748,0-1.099-0.322-1.099-1.04v-0.784
			c0-0.67-0.198-0.842-0.94-0.969l0.058-0.414l2.45,0.129v1.896c0,0.242,0.086,0.327,0.3,0.327h4.987V18.79z"/>
		<path d="M41.11,12.223c0,0.477-0.214,0.655-0.728,0.655h-4.899c-0.656,0-0.971-0.284-0.971-0.897v-1.383
			c0-0.74-0.142-0.855-0.854-0.955l0.015-0.37h6.782c0.463,0,0.655,0.2,0.655,0.585V12.223z M39.542,11.709v-1.268
			c0-0.229-0.071-0.314-0.299-0.314H36.08v1.582c0,0.223,0.086,0.314,0.3,0.314h2.864C39.45,12.024,39.542,11.933,39.542,11.709"/>
		<path d="M42.677,14.561h-3.976v0.623c0,0.584-0.101,1.133-0.214,1.604h-1.325v-2.227h-4.018l-1.197-0.869l0.242-0.385
			c0.698,0.312,1.519,0.398,2.365,0.398h8.122V14.561z"/>
	</g>
	<g display="inline">
		<text transform="matrix(1 0 0 1 902.1855 18.2925)" font-family="'KoPubDotumPL-KSCpc-EUC-H'" font-size="9.5">2017년 7월 28일 금요일</text>
	</g>
	<rect x="0.071" y="-0.066" display="inline" fill="none" width="1028.977" height="41.33"/>
</g>
<g id="Layer_2">
	<text transform="matrix(1 0 0 1 489.7568 16.1768)" font-family="'KoPubBatangPM-KSCpc-EUC-H'" font-size="20" letter-spacing="6">기획</text>
	<line fill="none" stroke="#000000" stroke-width="0.2" stroke-miterlimit="10" x1="0" y1="21.479" x2="982.451" y2="21.479"/>
	<line fill="none" stroke="#000000" stroke-width="0.2" stroke-miterlimit="10" x1="0" y1="23.578" x2="982.451" y2="23.578"/>
	<g>
		<path d="M10.753,16.428c0,0.613-0.086,1.881-0.242,2.381H9.257V12.91h-1.41v3.375c0,0.613-0.086,1.881-0.242,2.381H6.351v-4.123
			c-0.855,0.314-2.465,0.514-3.434,0.514c-0.699,0-1.127-0.342-1.127-1.055v-2.051c0-0.811-0.143-0.996-0.939-1.225l0.086-0.385
			l2.35,0.242v3.133c0,0.199,0.072,0.312,0.285,0.312c0.656,0,2.01-0.07,2.779-0.342v-3.031c0-0.785-0.541-1.043-0.926-1.211
			l0.113-0.371l2.309,0.371v2.611h1.41V9.844c0-0.783-0.555-1.043-0.939-1.211l0.113-0.371l2.322,0.385V16.428z"/>
		<path d="M20.886,11.938c0,0.699-0.072,1.504-0.215,2.217h-1.354V9.871c0-0.754-0.484-0.969-0.982-1.182l0.113-0.414l2.438,0.4
			V11.938z"/>
		<path d="M17.718,11.461c0,1.391-1.105,2.438-2.908,2.438c-1.809,0-2.91-1.047-2.91-2.438c0-1.393,1.102-2.438,2.91-2.438
			C16.613,9.023,17.718,10.068,17.718,11.461 M16.212,11.461c0-0.826-0.559-1.449-1.402-1.449c-0.848,0-1.404,0.609-1.404,1.449
			c0,0.826,0.559,1.447,1.404,1.447c0.844,0,1.389-0.607,1.389-1.447"/>
		<path d="M21.242,18.693c-0.498,0.057-1.281,0.1-1.824,0.1h-3.902c-0.65,0-0.971-0.262-0.971-0.896v-0.379
			c0-0.684-0.17-0.799-0.939-0.912l0.014-0.369h5.471c0.172,0,0.229-0.078,0.229-0.258v-0.178c0-0.172-0.064-0.258-0.229-0.258
			h-4.174l-1.139-0.783l0.17-0.342c0.67,0.229,1.125,0.271,1.924,0.271h4.459c0.42,0,0.557,0.156,0.557,0.498v1.391
			c0,0.398-0.143,0.512-0.557,0.512h-4.217v0.521c0,0.227,0.086,0.328,0.299,0.328h4.83V18.693z"/>
		<path d="M30.964,13.725c0,0.697-0.07,1.502-0.213,2.215h-1.355V9.871c0-0.754-0.484-0.969-0.982-1.182l0.113-0.414l2.438,0.4
			V13.725z"/>
		<path d="M26.605,10.42c-0.191,0.654-0.252,0.473-0.607,1.041l0.676,0.555c0.568,0.465,1.021,0.354,1.336,0.725
			c0.273,0.322,0.506,0.855,0.588,1.203l-0.646,0.504l-2.449-2.279c-0.801,1.021-1.85,1.877-3.037,2.543l-0.498-0.598
			c1.564-1.121,2.473-1.887,2.828-3.338c0.146-0.596-0.027-0.875-0.713-1.316l0.271-0.441l2.066,0.896
			C26.666,10.021,26.71,10.059,26.605,10.42"/>
		<path d="M31.474,18.719c-0.498,0.057-1.281,0.1-1.822,0.1h-3.934c-0.748,0-1.096-0.322-1.096-1.039v-0.785
			c0-0.67-0.201-0.842-0.941-0.969l0.057-0.414l2.451,0.129v1.896c0,0.242,0.086,0.326,0.299,0.326h4.986V18.719z"/>
		<path d="M41.177,18.719c-0.498,0.057-1.281,0.1-1.824,0.1h-3.932c-0.748,0-1.098-0.322-1.098-1.039v-0.785
			c0-0.67-0.199-0.842-0.941-0.969l0.059-0.414l2.449,0.129v1.896c0,0.242,0.086,0.326,0.301,0.326h4.986V18.719z"/>
		<path d="M40.929,12.152c0,0.477-0.215,0.656-0.729,0.656h-4.898c-0.656,0-0.971-0.285-0.971-0.898v-1.383
			c0-0.74-0.143-0.855-0.855-0.955l0.016-0.369h6.781c0.463,0,0.656,0.199,0.656,0.584V12.152z M39.361,11.639v-1.268
			c0-0.229-0.07-0.314-0.299-0.314h-3.164v1.582c0,0.223,0.086,0.314,0.301,0.314h2.863C39.269,11.953,39.361,11.863,39.361,11.639"
			/>
		<path d="M42.496,14.49h-3.975v0.623c0,0.584-0.102,1.133-0.215,1.604h-1.324V14.49h-4.018l-1.197-0.869l0.242-0.385
			c0.697,0.312,1.518,0.398,2.365,0.398h8.121V14.49z"/>
	</g>
	<g>
		<text transform="matrix(1 0 0 1 894.2344 17.2207)" font-family="'KoPubDotumPL-KSCpc-EUC-H'" font-size="9.5">2017년 7월 28일 금요일</text>
	</g>
	<rect fill="none" width="1028.977" height="41.329"/>
	<text transform="matrix(1 0 0 1 988.4785 23.6924)" font-family="'Helvetica-Light'" font-size="33">21</text>
</g>
</svg>
