<?xml version="1.0" encoding="utf-8"?>
<!-- Generator: Adobe Illustrator 16.0.0, SVG Export Plug-In . SVG Version: 6.00 Build 0)  -->
<!DOCTYPE svg PUBLIC "-//W3C//DTD SVG 1.1//EN" "http://www.w3.org/Graphics/SVG/1.1/DTD/svg11.dtd">
<svg version="1.1" id="KoPUB돋움_x2C_바탕" xmlns="http://www.w3.org/2000/svg" xmlns:xlink="http://www.w3.org/1999/xlink"
	 x="0px" y="0px" width="1028.98px" height="55.106px" viewBox="0 0 1028.98 55.106" enable-background="new 0 0 1028.98 55.106"
	 xml:space="preserve">
<g>
	<text transform="matrix(1 0 0 1 4.8945 23.5425)" font-family="'Helvetica-Light'" font-size="33">22</text>
	
		<line fill="none" stroke="#000000" stroke-width="0.2" stroke-miterlimit="10" x1="153.631" y1="21.616" x2="1028.98" y2="21.616"/>
	
		<line fill="none" stroke="#000000" stroke-width="0.2" stroke-miterlimit="10" x1="153.631" y1="23.716" x2="1028.98" y2="23.716"/>
	<g>
		<path d="M996.237,16.564c0,0.613-0.085,1.881-0.241,2.38h-1.254v-5.897h-1.411v3.375c0,0.613-0.085,1.881-0.242,2.381h-1.254
			V14.68c-0.854,0.314-2.464,0.514-3.434,0.514c-0.698,0-1.126-0.342-1.126-1.055v-2.051c0-0.811-0.143-0.996-0.94-1.225
			l0.086-0.385l2.351,0.242v3.133c0,0.199,0.072,0.312,0.285,0.312c0.655,0,2.009-0.07,2.778-0.342v-3.031
			c0-0.785-0.54-1.043-0.926-1.211l0.114-0.371l2.308,0.371v2.611h1.411V9.98c0-0.784-0.556-1.043-0.94-1.211l0.113-0.371
			l2.322,0.385V16.564z"/>
		<path d="M1006.37,12.074c0,0.699-0.071,1.504-0.214,2.217h-1.354v-4.283c0-0.754-0.484-0.969-0.983-1.182l0.114-0.414l2.437,0.4
			V12.074z"/>
		<path d="M1003.202,11.598c0,1.391-1.105,2.437-2.908,2.437c-1.808,0-2.91-1.046-2.91-2.437c0-1.393,1.103-2.438,2.91-2.438
			C1002.097,9.16,1003.202,10.205,1003.202,11.598 M1001.696,11.598c0-0.826-0.558-1.449-1.402-1.449
			c-0.847,0-1.403,0.609-1.403,1.449c0,0.825,0.558,1.447,1.403,1.447c0.845,0,1.389-0.607,1.389-1.447"/>
		<path d="M1006.727,18.83c-0.499,0.057-1.282,0.1-1.824,0.1h-3.903c-0.649,0-0.97-0.263-0.97-0.896v-0.379
			c0-0.684-0.171-0.799-0.939-0.912l0.014-0.369h5.471c0.172,0,0.229-0.078,0.229-0.258v-0.179c0-0.171-0.064-0.257-0.229-0.257
			h-4.174l-1.14-0.783l0.171-0.342c0.669,0.229,1.125,0.271,1.924,0.271h4.458c0.421,0,0.557,0.157,0.557,0.499v1.391
			c0,0.398-0.143,0.512-0.557,0.512h-4.216v0.521c0,0.227,0.085,0.327,0.299,0.327h4.83V18.83z"/>
		<path d="M1016.449,13.861c0,0.697-0.071,1.502-0.214,2.215h-1.354v-6.068c0-0.754-0.484-0.969-0.983-1.182l0.114-0.414l2.438,0.4
			V13.861z"/>
		<path d="M1012.089,10.556c-0.19,0.655-0.252,0.474-0.606,1.042l0.675,0.554c0.568,0.466,1.021,0.354,1.336,0.725
			c0.274,0.323,0.507,0.855,0.589,1.204l-0.647,0.504l-2.448-2.279c-0.801,1.021-1.851,1.877-3.037,2.543l-0.499-0.599
			c1.565-1.12,2.474-1.886,2.829-3.337c0.146-0.596-0.028-0.875-0.713-1.316l0.271-0.442l2.066,0.897
			C1012.149,10.158,1012.194,10.195,1012.089,10.556"/>
		<path d="M1016.959,18.855c-0.498,0.057-1.281,0.1-1.823,0.1h-3.933c-0.748,0-1.097-0.322-1.097-1.04v-0.784
			c0-0.67-0.2-0.842-0.94-0.969l0.057-0.414l2.451,0.129v1.896c0,0.242,0.085,0.327,0.299,0.327h4.986V18.855z"/>
		<path d="M1026.662,18.855c-0.499,0.057-1.282,0.1-1.824,0.1h-3.932c-0.748,0-1.099-0.322-1.099-1.04v-0.784
			c0-0.67-0.198-0.842-0.94-0.969l0.058-0.414l2.45,0.129v1.896c0,0.242,0.086,0.327,0.3,0.327h4.987V18.855z"/>
		<path d="M1026.413,12.289c0,0.477-0.214,0.655-0.728,0.655h-4.899c-0.656,0-0.971-0.284-0.971-0.897v-1.383
			c0-0.74-0.142-0.855-0.854-0.955l0.015-0.37h6.782c0.463,0,0.655,0.2,0.655,0.585V12.289z M1024.846,11.775v-1.268
			c0-0.229-0.071-0.314-0.299-0.314h-3.164v1.582c0,0.223,0.086,0.314,0.3,0.314h2.864
			C1024.753,12.09,1024.846,11.999,1024.846,11.775"/>
		<path d="M1027.98,14.627h-3.976v0.623c0,0.584-0.101,1.133-0.214,1.604h-1.325v-2.227h-4.018l-1.197-0.869l0.242-0.385
			c0.698,0.312,1.519,0.398,2.365,0.398h8.122V14.627z"/>
	</g>
	<text transform="matrix(1.15 0 0 1 154.3911 16.335)" font-family="'Times-Roman'" font-size="11">opinion</text>
	<g>
		<text transform="matrix(1 0 0 1 889.9961 17.0747)" font-family="'KoPubDotumPL-KSCpc-EUC-H'" font-size="9.5">2017년 7월 28일 금요일</text>
	</g>
	<rect fill="none" width="1028.977" height="55.105"/>
	<text transform="matrix(1 0 0 1 47.917 33.7407)"><tspan x="0" y="0" fill="#9FA0A0" font-family="'KoPubBatangPL-KSCpc-EUC-H'" font-size="32" letter-spacing="-6">오</tspan><tspan x="23.424" y="-8" fill="#9FA0A0" font-family="'KoPubBatangPL-KSCpc-EUC-H'" font-size="32" letter-spacing="-5">피</tspan><tspan x="48.127" y="0" fill="#9FA0A0" font-family="'KoPubBatangPL-KSCpc-EUC-H'" font-size="32" letter-spacing="-5">니</tspan><tspan x="72.831" y="0" fill="#9FA0A0" font-family="'KoPubBatangPL-KSCpc-EUC-H'" font-size="32" letter-spacing="-5">언</tspan></text>
</g>
</svg>
